<?xml version="1.0" standalone="no"?>
<!DOCTYPE svg PUBLIC "-//W3C//DTD SVG 20010904//EN"
 "http://www.w3.org/TR/2001/REC-SVG-20010904/DTD/svg10.dtd">
<svg version="1.0" xmlns="http://www.w3.org/2000/svg"
 width="960.000000pt" height="960.000000pt" viewBox="0 0 960.000000 960.000000"
 preserveAspectRatio="xMidYMid meet">
<metadata>
Created by potrace 1.14, written by Peter Selinger 2001-2017
</metadata>
<g transform="translate(0.000000,960.000000) scale(0.100000,-0.100000)"
fill="#000000" stroke="none">
<path d="M6262 7923 c-286 -230 -764 -615 -1063 -855 -299 -240 -656 -528
-794 -638 -137 -111 -589 -473 -1002 -806 -455 -366 -759 -616 -768 -634 -32
-62 -4 -139 61 -166 31 -13 763 -227 1554 -454 157 -45 291 -85 297 -89 9 -5
-12 -47 -69 -141 -45 -74 -440 -731 -878 -1460 -438 -729 -803 -1335 -811
-1348 -16 -25 -2 -58 23 -56 8 1 531 417 1163 925 633 509 1561 1255 2064
1659 503 404 923 748 933 765 37 59 5 148 -63 172 -19 7 -443 130 -944 274
-500 145 -912 264 -914 266 -2 1 106 186 241 410 135 225 536 892 892 1484
443 737 645 1081 640 1092 -3 9 -14 17 -24 17 -10 0 -252 -188 -538 -417z"/>
</g>
</svg>
